<svg width="200" height="200" viewBox="0 0 200 200" xmlns="http://www.w3.org/2000/svg">
  <!-- Background rounded square with gradient -->
  <defs>
    <linearGradient id="bgGradient" x1="0%" y1="0%" x2="100%" y2="100%">
      <stop offset="0%" style="stop-color:#5dc8cd;stop-opacity:1" />
      <stop offset="100%" style="stop-color:#2c5282;stop-opacity:1" />
    </linearGradient>
    <radialGradient id="orangeGrad" cx="50%" cy="50%" r="50%">
      <stop offset="0%" style="stop-color:#ff8c42;stop-opacity:1" />
      <stop offset="100%" style="stop-color:#d4711a;stop-opacity:1" />
    </radialGradient>
    <radialGradient id="blueGrad" cx="50%" cy="50%" r="50%">
      <stop offset="0%" style="stop-color:#4ecca3;stop-opacity:1" />
      <stop offset="100%" style="stop-color:#328ba8;stop-opacity:1" />
    </radialGradient>
  </defs>
  
  <!-- Main container with rounded corners -->
  <rect x="10" y="10" width="180" height="180" rx="35" ry="35" fill="url(#bgGradient)" />
  
  <!-- Brain/Network structure -->
  <g stroke="#1a365d" stroke-width="2" fill="none" opacity="0.6">
    <!-- Central hub -->
    <circle cx="100" cy="100" r="8" fill="#ffffff" />
    
    <!-- Connection lines -->
    <line x1="100" y1="100" x2="60" y2="70" />
    <line x1="100" y1="100" x2="140" y2="70" />
    <line x1="100" y1="100" x2="160" y2="100" />
    <line x1="100" y1="100" x2="140" y2="130" />
    <line x1="100" y1="100" x2="60" y2="130" />
    <line x1="100" y1="100" x2="40" y2="100" />
    <line x1="100" y1="100" x2="80" y2="50" />
    <line x1="100" y1="100" x2="120" y2="50" />
    <line x1="100" y1="100" x2="80" y2="150" />
    <line x1="100" y1="100" x2="120" y2="150" />
  </g>
  
  <!-- Network nodes - Orange nodes -->
  <g>
    <circle cx="60" cy="70" r="12" fill="url(#orangeGrad)" stroke="#d4711a" stroke-width="2" />
    <circle cx="140" cy="130" r="12" fill="url(#orangeGrad)" stroke="#d4711a" stroke-width="2" />
    <circle cx="80" cy="50" r="10" fill="url(#orangeGrad)" stroke="#d4711a" stroke-width="2" />
    <circle cx="120" cy="150" r="10" fill="url(#orangeGrad)" stroke="#d4711a" stroke-width="2" />
    <circle cx="40" cy="100" r="8" fill="url(#orangeGrad)" stroke="#d4711a" stroke-width="1" />
    <circle cx="160" cy="100" r="8" fill="url(#orangeGrad)" stroke="#d4711a" stroke-width="1" />
  </g>
  
  <!-- Network nodes - Blue/Teal nodes -->
  <g>
    <circle cx="140" cy="70" r="12" fill="url(#blueGrad)" stroke="#328ba8" stroke-width="2" />
    <circle cx="60" cy="130" r="12" fill="url(#blueGrad)" stroke="#328ba8" stroke-width="2" />
    <circle cx="120" cy="50" r="10" fill="url(#blueGrad)" stroke="#328ba8" stroke-width="2" />
    <circle cx="80" cy="150" r="10" fill="url(#blueGrad)" stroke="#328ba8" stroke-width="2" />
  </g>
  
  <!-- Highlights on nodes -->
  <g fill="#ffffff" opacity="0.7">
    <ellipse cx="55" cy="65" rx="4" ry="6" />
    <ellipse cx="135" cy="65" rx="4" ry="6" />
    <ellipse cx="135" cy="125" rx="4" ry="6" />
    <ellipse cx="55" cy="125" rx="4" ry="6" />
    <ellipse cx="75" cy="45" rx="3" ry="4" />
    <ellipse cx="115" cy="45" rx="3" ry="4" />
    <ellipse cx="75" cy="145" rx="3" ry="4" />
    <ellipse cx="115" cy="145" rx="3" ry="4" />
  </g>
  
  <!-- Additional smaller connection nodes -->
  <g fill="#ffffff" opacity="0.8">
    <circle cx="50" cy="85" r="2" />
    <circle cx="150" cy="85" r="2" />
    <circle cx="50" cy="115" r="2" />
    <circle cx="150" cy="115" r="2" />
    <circle cx="85" cy="40" r="1.5" />
    <circle cx="115" cy="40" r="1.5" />
    <circle cx="85" cy="160" r="1.5" />
    <circle cx="115" cy="160" r="1.5" />
  </g>
</svg>