<svg width="200" height="200" viewBox="0 0 200 200" xmlns="http://www.w3.org/2000/svg">
  <!-- Background rounded square with gradient -->
  <defs>
    <linearGradient id="bgGradient" x1="0%" y1="0%" x2="100%" y2="100%">
      <stop offset="0%" style="stop-color:#5dc8cd;stop-opacity:1" />
      <stop offset="100%" style="stop-color:#2c5282;stop-opacity:1" />
    </linearGradient>
    <radialGradient id="orangeGrad" cx="50%" cy="50%" r="50%">
      <stop offset="0%" style="stop-color:#ff7f50;stop-opacity:1" />
      <stop offset="100%" style="stop-color:#ff4500;stop-opacity:1" />
    </radialGradient>
    <radialGradient id="blueGrad" cx="50%" cy="50%" r="50%">
      <stop offset="0%" style="stop-color:#4ecca3;stop-opacity:1" />
      <stop offset="100%" style="stop-color:#2980b9;stop-opacity:1" />
    </radialGradient>
  </defs>
  
  <!-- Main container with rounded corners resembling the provided logo -->
  <rect x="10" y="10" width="180" height="180" rx="40" ry="40" fill="url(#bgGradient)" />
  
  <!-- Brain outline shape -->
  <path d="M50 80 Q45 65 55 55 Q70 50 85 55 Q100 45 115 55 Q130 50 145 55 Q155 65 150 80 Q155 95 150 110 Q155 125 145 135 Q130 140 115 135 Q100 145 85 135 Q70 140 55 135 Q45 125 50 110 Q45 95 50 80 Z" 
        fill="#2c3e50" opacity="0.8" stroke="#1a252f" stroke-width="2"/>
  
  <!-- Central hub -->
  <circle cx="100" cy="100" r="5" fill="#ffffff" />
  
  <!-- Connection lines radiating from center -->
  <g stroke="#1a252f" stroke-width="2" opacity="0.6">
    <line x1="100" y1="100" x2="70" y2="75" />
    <line x1="100" y1="100" x2="130" y2="75" />
    <line x1="100" y1="100" x2="70" y2="125" />
    <line x1="100" y1="100" x2="130" y2="125" />
    <line x1="100" y1="100" x2="85" y2="65" />
    <line x1="100" y1="100" x2="115" y2="65" />
    <line x1="100" y1="100" x2="85" y2="135" />
    <line x1="100" y1="100" x2="115" y2="135" />
    <line x1="100" y1="100" x2="145" y2="90" />
    <line x1="100" y1="100" x2="145" y2="110" />
    <line x1="100" y1="100" x2="55" y2="90" />
    <line x1="100" y1="100" x2="55" y2="110" />
  </g>
  
  <!-- Large orange nodes -->
  <g>
    <circle cx="70" cy="75" r="14" fill="url(#orangeGrad)" />
    <circle cx="130" cy="125" r="14" fill="url(#orangeGrad)" />
    <circle cx="115" cy="65" r="12" fill="url(#orangeGrad)" />
  </g>
  
  <!-- Large blue nodes -->
  <g>
    <circle cx="130" cy="75" r="14" fill="url(#blueGrad)" />
    <circle cx="70" cy="125" r="14" fill="url(#blueGrad)" />
    <circle cx="85" cy="65" r="12" fill="url(#blueGrad)" />
  </g>
  
  <!-- Medium nodes -->
  <g>
    <circle cx="85" cy="135" r="10" fill="url(#orangeGrad)" />
    <circle cx="115" cy="135" r="10" fill="url(#blueGrad)" />
    <circle cx="145" cy="90" r="8" fill="url(#orangeGrad)" />
    <circle cx="145" cy="110" r="8" fill="url(#blueGrad)" />
    <circle cx="55" cy="90" r="8" fill="url(#blueGrad)" />
    <circle cx="55" cy="110" r="8" fill="url(#orangeGrad)" />
  </g>
  
  <!-- Highlights on main nodes to give 3D effect -->
  <g fill="#ffffff" opacity="0.7">
    <ellipse cx="66" cy="70" rx="4" ry="6" />
    <ellipse cx="126" cy="70" rx="4" ry="6" />
    <ellipse cx="126" cy="120" rx="4" ry="6" />
    <ellipse cx="66" cy="120" rx="4" ry="6" />
    <ellipse cx="110" cy="60" rx="3" ry="4" />
    <ellipse cx="80" cy="60" rx="3" ry="4" />
  </g>
  
  <!-- Additional small connecting nodes -->
  <g fill="#ffffff" opacity="0.9">
    <circle cx="92" cy="85" r="2" />
    <circle cx="108" cy="85" r="2" />
    <circle cx="92" cy="115" r="2" />
    <circle cx="108" cy="115" r="2" />
  </g>
</svg>